<?xml version="1.0" standalone="no"?>
<!DOCTYPE svg PUBLIC "-//W3C//DTD SVG 20010904//EN"
 "http://www.w3.org/TR/2001/REC-SVG-20010904/DTD/svg10.dtd">
<svg version="1.0" xmlns="http://www.w3.org/2000/svg"
 width="1024.000000pt" height="1024.000000pt" viewBox="0 0 1024.000000 1024.000000"
 preserveAspectRatio="xMidYMid meet">
<metadata>
Created by potrace 1.11, written by Peter Selinger 2001-2013
</metadata>
<g transform="translate(0.000000,1024.000000) scale(0.100000,-0.100000)"
fill="#000000" stroke="none">
<path d="M5000 9460 c-116 -11 -298 -57 -405 -103 -335 -145 -614 -416 -874
-850 -56 -93 -241 -467 -241 -487 0 -9 -25 -10 -97 -3 -54 4 -226 8 -383 7
-249 0 -301 -3 -409 -22 -281 -51 -471 -122 -660 -246 -283 -187 -486 -484
-573 -838 -20 -82 -23 -117 -23 -308 0 -230 9 -293 61 -475 82 -281 250 -615
456 -907 37 -53 68 -102 68 -108 0 -6 -38 -66 -84 -133 -263 -384 -421 -735
-488 -1082 -8 -45 -13 -146 -13 -280 0 -185 3 -221 23 -303 66 -268 191 -493
374 -674 172 -171 364 -280 616 -352 186 -52 521 -81 873 -74 257 6 258 6 265
-16 16 -51 188 -394 247 -493 235 -389 487 -644 784 -793 200 -100 381 -142
618 -142 240 -1 423 42 627 145 396 202 732 614 1012 1245 l28 64 96 -9 c54
-4 221 -8 372 -8 215 1 299 5 385 19 400 65 684 201 911 438 265 277 399 641
381 1034 -20 399 -190 817 -540 1329 l-59 85 65 92 c117 169 189 291 282 473
164 325 238 576 252 850 19 398 -113 752 -388 1040 -220 230 -507 367 -904
431 -86 14 -170 18 -385 19 -151 0 -319 -4 -372 -8 l-97 -8 -23 53 c-83 195
-224 455 -336 618 -393 572 -871 830 -1442 780z m254 -1109 c71 -31 197 -159
281 -286 78 -117 181 -303 172 -311 -2 -3 -105 -43 -228 -90 -123 -47 -251
-96 -284 -108 l-60 -23 -85 34 c-47 18 -176 68 -287 109 l-203 76 52 101 c103
200 247 392 348 462 95 66 194 78 294 36z m2284 -1421 c383 -76 451 -268 246
-691 -59 -120 -160 -299 -169 -299 -2 0 -46 37 -98 83 -51 45 -134 117 -184
159 l-91 77 -12 73 c-6 40 -29 177 -52 303 -22 127 -42 246 -45 266 l-5 36 48
9 c56 10 278 0 362 -16z m-4394 9 c3 -3 -8 -76 -24 -163 -17 -86 -44 -239 -61
-338 -16 -100 -31 -183 -32 -184 -14 -10 -248 -212 -300 -257 -37 -33 -69 -58
-71 -56 -40 44 -202 362 -241 474 -51 145 -45 301 13 371 58 69 182 124 337
149 87 14 367 17 379 4z m2221 -480 c274 -42 516 -169 736 -389 192 -192 309
-406 366 -673 26 -118 25 -438 0 -557 -56 -262 -170 -470 -365 -669 -178 -181
-361 -292 -587 -356 -126 -36 -219 -48 -375 -48 -246 0 -407 36 -615 138 -155
76 -276 164 -380 279 -192 211 -299 425 -347 696 -19 109 -16 394 5 500 37
188 95 325 203 487 137 204 322 366 539 474 246 121 528 162 820 118z m-2533
-2307 c91 -78 172 -148 181 -155 12 -9 22 -50 36 -147 22 -149 64 -380 86
-478 8 -35 15 -66 15 -69 0 -9 -310 5 -395 17 -160 23 -286 81 -340 158 -27
39 -30 53 -33 132 -4 77 0 102 28 191 43 139 228 505 251 497 4 -2 81 -67 171
-146z m4836 71 c64 -109 157 -302 186 -385 99 -289 33 -429 -237 -498 -83 -21
-278 -40 -408 -40 -90 0 -87 -5 -64 92 23 103 73 386 86 491 l12 98 131 112
c72 61 155 133 184 160 29 26 57 45 61 42 5 -2 27 -35 49 -72z m-2298 -1608
c74 -29 176 -67 225 -84 50 -18 97 -36 104 -41 11 -6 3 -29 -39 -106 -147
-277 -291 -448 -421 -501 -67 -27 -151 -23 -223 10 -118 55 -280 253 -404 494
l-52 100 128 47 c70 25 199 75 287 110 l160 63 50 -19 c28 -11 111 -44 185
-73z"/>
<path d="M4980 5637 c-422 -142 -520 -662 -176 -939 104 -83 200 -118 331
-118 132 0 242 39 343 123 276 227 267 633 -19 849 -137 104 -324 137 -479 85z"/>
</g>
</svg>
