<svg version="1" xmlns="http://www.w3.org/2000/svg" width="346.667" height="346.667" viewBox="0 0 260.000000 260.000000"><path d="M109 1.5C90.5 4.6 70.6 12.6 55.3 23.2 44 30.9 29.6 45.7 21.7 57.5 6.6 80.3 0 102.4 0 130.1c0 23 5.1 43.5 15.5 62.4C39 235 81.5 260 129.9 260c35.9 0 66.4-12.5 91.7-37.5 25.2-24.9 38.4-56.7 38.4-92.5 0-35.2-13-66.9-37.5-91.6-25.1-25.3-57.8-38.6-94-38.3-6.6.1-15.4.7-19.5 1.4zm44.8 92.7c3.4 1 6.2 2.3 6.2 2.8 0 .4-1 3.4-2.2 6.5-1.6 4.3-2.5 5.4-3.7 4.9-.9-.3-4.3-1.5-7.6-2.6-11-3.6-20.2-.3-24.6 8.9-3.1 6.4-3.9 20.5-1.6 28.4 2.5 8.5 9.6 13.9 18.1 13.9 3.2 0 14.8-2.3 17.9-3.5 1.5-.6 1.7 0 1.7 5.8 0 6.5 0 6.5-3.4 7.7-5.4 1.7-17.7 2.8-23.7 2-14.2-2-23.5-10.7-26.9-25.2-1.4-6.1-1.2-20.4.4-26.3 5.7-21.6 25.1-30.8 49.4-23.3zm69 0c3.4 1 6.2 2.3 6.2 2.8 0 .4-1 3.4-2.2 6.5-1.6 4.3-2.5 5.4-3.7 4.9-.9-.3-4.3-1.5-7.6-2.6-11-3.6-20.2-.3-24.6 8.9-3.1 6.4-3.9 20.5-1.6 28.4 2.5 8.5 9.6 13.9 18.1 13.9 3.2 0 14.8-2.3 17.9-3.5 1.5-.6 1.7 0 1.7 5.8 0 6.5 0 6.5-3.4 7.7-5.4 1.7-17.7 2.8-23.7 2-14.2-2-23.5-10.7-26.9-25.2-1.4-6.1-1.2-20.4.4-26.3 5.7-21.6 25.1-30.8 49.4-23.3zM56.9 93c11.9 1.6 21.5 7 26.6 15 7.8 12.4 7.1 35.1-1.4 46.3-8.2 10.8-20.4 14.7-45.8 14.7H26V92h11.8c6.4 0 15 .5 19.1 1z"/><path d="M42 130.5V156h5.8c16.1 0 24-7.3 25-23.1.8-14-4.1-23.9-13.5-26.7-2.2-.7-7-1.2-10.7-1.2H42v25.5z"/></svg>